<?xml version="1.0" standalone="no"?>
<!DOCTYPE svg PUBLIC "-//W3C//DTD SVG 20010904//EN"
 "http://www.w3.org/TR/2001/REC-SVG-20010904/DTD/svg10.dtd">
<svg version="1.0" xmlns="http://www.w3.org/2000/svg"
 width="948.000000pt" height="356.000000pt" viewBox="0 0 948.000000 356.000000"
 preserveAspectRatio="xMidYMid meet">

<g transform="translate(0.000000,356.000000) scale(0.100000,-0.100000)"
fill="#000000" stroke="none">
<path d="M256 3551 c-3 -4 -30 -21 -61 -36 -77 -40 -139 -109 -164 -187 -7
-21 -17 -38 -22 -38 -5 0 -9 -588 -9 -1494 0 -1315 2 -1495 15 -1506 8 -7 15
-20 15 -29 0 -26 52 -102 100 -145 23 -21 68 -50 99 -65 l56 -26 4440 0 4440
0 57 27 c80 37 152 108 191 187 l32 66 0 1480 c0 1435 -1 1482 -19 1530 -11
28 -25 57 -33 66 -7 8 -13 20 -13 26 0 18 -83 88 -132 112 -27 12 -50 27 -54
32 -7 12 -8931 12 -8938 0z m8937 -75 c68 -27 144 -98 173 -164 l24 -54 0
-1472 c0 -1279 -2 -1475 -15 -1492 -8 -10 -15 -27 -15 -36 0 -21 -117 -138
-138 -138 -9 0 -26 -7 -36 -15 -29 -22 -773 -22 -802 0 -25 19 -68 19 -84 0
-11 -13 -469 -15 -4014 -15 -3504 0 -4005 2 -4022 15 -10 8 -26 15 -36 15 -22
0 -138 116 -138 138 0 10 -7 27 -15 38 -12 16 -14 213 -15 1494 0 1223 2 1479
14 1495 7 11 16 32 19 46 4 14 25 44 48 66 39 39 57 50 139 86 31 14 486 16
4450 14 4282 -2 4416 -3 4463 -21z"/>
<path d="M5392 3261 c-21 -13 -11 -56 13 -56 15 0 20 7 20 29 0 31 -12 41 -33
27z"/>
<path d="M637 3206 c-8 -20 19 -47 39 -39 22 8 13 47 -12 51 -12 2 -24 -4 -27
-12z"/>
<path d="M7979 3204 c-12 -14 -10 -19 14 -40 35 -30 59 -22 55 20 -2 25 -8 32
-29 34 -15 2 -32 -4 -40 -14z"/>
<path d="M6333 3123 c-18 -7 -16 -50 1 -56 21 -8 49 16 44 39 -3 19 -23 27
-45 17z"/>
<path d="M2335 3104 c-26 -27 -15 -49 28 -52 33 -3 37 -1 37 20 0 44 -35 61
-65 32z"/>
<path d="M3744 3055 c-4 -9 -2 -21 4 -27 16 -16 47 -5 47 17 0 26 -42 34 -51
10z"/>
<path d="M3284 2970 c-45 -14 -63 -47 -65 -121 -2 -61 0 -66 34 -101 32 -34
41 -38 84 -38 71 0 114 27 136 85 16 44 16 52 2 101 -9 33 -23 58 -36 65 -29
15 -118 20 -155 9z"/>
<path d="M6025 2967 c-3 -6 -4 -185 -3 -397 l3 -385 42 -3 c32 -2 47 2 62 17
26 26 33 26 57 0 17 -19 28 -20 106 -17 84 3 88 4 122 37 62 60 78 103 83 222
5 92 2 111 -16 152 -12 25 -21 50 -21 55 0 19 -83 82 -109 83 -14 0 -35 4 -45
8 -22 8 -119 -14 -124 -29 -2 -6 -12 -10 -23 -10 -18 0 -19 8 -19 118 0 160
-1 162 -61 162 -31 0 -51 -5 -54 -13z m270 -323 c12 -3 35 -26 53 -52 30 -44
32 -53 32 -135 0 -76 -3 -93 -25 -127 -36 -57 -65 -73 -116 -65 -50 9 -96 53
-104 100 -2 16 -4 71 -2 120 2 78 5 95 25 120 31 39 83 54 137 39z"/>
<path d="M6631 2966 c-8 -9 -10 -122 -9 -397 l3 -384 39 -3 c22 -2 50 -1 63 2
l23 6 0 383 c0 285 -3 386 -12 395 -16 16 -93 15 -107 -2z"/>
<path d="M3980 2928 c-67 -15 -120 -56 -161 -123 -29 -50 -37 -76 -48 -157
-22 -171 10 -309 89 -387 60 -60 117 -82 213 -82 105 -1 173 9 188 27 6 8 19
14 28 14 10 0 27 10 38 23 19 20 22 36 24 167 l3 145 -139 0 -140 0 0 -40 0
-40 70 -3 c86 -3 95 -13 95 -98 l0 -63 -47 -22 c-61 -28 -149 -30 -190 -4 -44
28 -83 67 -83 84 0 9 -7 25 -15 35 -12 15 -15 52 -15 156 0 104 3 141 15 156
8 10 15 26 15 34 0 8 19 31 43 52 39 35 46 38 105 38 80 0 115 -19 149 -82
l26 -48 54 0 c50 0 53 1 53 26 0 36 -66 131 -110 159 -63 39 -169 53 -260 33z"/>
<path d="M4639 2731 c-30 -9 -64 -23 -75 -31 -33 -25 -64 -72 -64 -96 0 -22 4
-24 55 -24 50 0 56 3 65 24 13 34 40 46 104 46 53 0 58 -2 76 -32 25 -41 26
-74 3 -86 -10 -5 -56 -15 -103 -21 -134 -20 -185 -54 -206 -138 -17 -66 4
-125 59 -164 35 -26 48 -29 111 -29 43 0 81 6 96 15 49 28 52 28 69 6 14 -19
25 -22 66 -19 l49 3 -2 195 c-3 233 -13 276 -74 320 -36 27 -116 52 -156 49
-9 -1 -42 -9 -73 -18z m162 -291 c26 -15 26 -82 -1 -120 -62 -88 -190 -70
-190 26 0 56 14 72 90 97 26 9 81 7 101 -3z"/>
<path d="M5307 2735 c-27 -8 -55 -19 -62 -25 -11 -9 -19 -8 -37 4 -25 18 -113
22 -123 6 -3 -6 -6 -126 -5 -267 0 -190 4 -259 13 -265 7 -5 35 -7 62 -6 l50
3 2 205 1 205 31 27 c48 43 126 37 158 -11 15 -22 19 -55 23 -226 l5 -200 55
0 55 0 3 195 3 195 27 33 c45 55 133 57 168 5 17 -24 20 -54 24 -228 l5 -200
50 0 50 0 3 215 c3 191 1 219 -15 250 -24 47 -58 73 -116 88 -41 10 -57 10
-98 -3 -28 -8 -62 -23 -76 -35 -29 -22 -55 -19 -88 10 -18 16 -42 24 -99 34
-11 2 -43 -2 -69 -9z"/>
<path d="M7081 2728 c-46 -17 -58 -18 -75 -8 -18 11 -104 15 -114 6 -1 -2 -3
-122 -3 -266 0 -204 3 -265 13 -272 7 -4 30 -8 50 -8 71 0 68 -8 68 197 0 113
4 192 11 205 12 22 66 48 119 57 32 6 35 9 38 44 4 42 -11 68 -37 66 -9 -1
-40 -10 -70 -21z"/>
<path d="M7296 2729 c-32 -25 -34 -61 -5 -90 27 -27 66 -21 92 12 24 33 16 64
-23 84 -36 19 -32 19 -64 -6z"/>
<path d="M7574 2436 c-8 -34 2 -46 36 -46 23 0 31 5 36 24 8 34 -2 46 -36 46
-23 0 -31 -5 -36 -24z"/>
<path d="M730 2383 c-23 -12 -43 -34 -58 -63 l-22 -45 2 -460 c3 -501 3 -496
61 -539 28 -21 29 -21 1091 -21 l1063 0 36 27 c29 23 38 38 47 82 15 76 9 920
-7 957 -6 15 -27 37 -45 50 l-33 24 -1050 3 c-984 2 -1052 1 -1085 -15z m597
-66 c17 -9 41 -32 52 -50 20 -33 21 -46 21 -438 0 -375 -1 -407 -19 -439 -10
-19 -34 -44 -52 -55 -31 -18 -52 -20 -269 -20 -218 0 -238 1 -270 20 -71 42
-71 40 -68 507 l3 418 26 25 c44 45 78 50 319 49 188 -1 230 -3 257 -17z m749
-4 c69 -35 73 -60 74 -484 0 -444 -2 -457 -83 -495 -50 -23 -61 -24 -262 -24
-199 0 -213 1 -255 23 -88 44 -85 28 -88 455 -2 207 0 396 3 420 8 55 53 107
101 119 20 4 134 8 254 7 196 -1 222 -3 256 -21z m742 3 c18 -9 42 -31 52 -49
19 -30 20 -53 20 -442 0 -549 26 -510 -340 -510 -206 0 -239 2 -267 18 -69 37
-68 29 -71 457 -2 212 0 404 3 428 3 23 16 54 28 68 38 44 76 49 318 48 190
-1 230 -4 257 -18z"/>
<path d="M1065 2063 c-68 -9 -132 -34 -167 -66 -58 -55 -73 -91 -73 -183 0
-71 3 -85 27 -121 37 -56 97 -83 197 -90 91 -7 181 3 206 21 24 18 36 223 14
237 -16 10 -129 12 -153 3 -24 -9 -21 -76 4 -92 11 -7 20 -23 20 -37 0 -63
-119 -58 -164 7 -23 33 -21 113 5 155 35 57 87 76 193 72 l91 -4 0 35 c0 27
-5 37 -25 46 -28 13 -129 23 -175 17z"/>
<path d="M1552 1933 c-6 -10 -11 -74 -13 -143 l-4 -125 104 -3 c113 -3 142 6
163 53 9 20 8 32 -7 59 -17 31 -17 39 -5 75 11 34 11 46 0 65 -16 31 -35 36
-142 36 -73 0 -89 -3 -96 -17z m136 -66 c3 -12 -3 -17 -22 -17 -25 0 -35 18
-19 34 12 12 38 2 41 -17z m7 -122 c0 -13 -8 -21 -24 -23 -28 -4 -46 11 -37
33 9 25 61 16 61 -10z"/>
<path d="M1881 1936 c-8 -9 -15 -67 -18 -146 l-6 -131 109 3 c101 3 109 4 109
23 0 16 -8 21 -46 25 -76 9 -82 19 -77 127 3 58 1 96 -5 102 -16 16 -53 13
-66 -3z"/>
<path d="M2397 2047 c-12 -9 -17 -48 -23 -182 -4 -93 -8 -188 -8 -210 l-1 -40
50 -3 c28 -1 56 1 62 6 7 5 15 44 19 95 4 48 13 95 20 105 13 18 13 19 74
-138 l25 -65 58 -3 c72 -4 77 6 43 92 -14 35 -26 72 -26 81 0 9 17 32 39 53
49 47 60 97 34 150 -28 57 -58 66 -214 69 -95 2 -141 -2 -152 -10z m226 -104
c22 -21 22 -39 -2 -60 -25 -21 -94 -44 -103 -35 -7 8 -12 45 -10 80 3 42 74
51 115 15z"/>
<path d="M8558 2319 c-25 -14 -22 -36 8 -55 31 -21 47 -9 42 32 -3 31 -23 40
-50 23z"/>
<path d="M7280 2220 c0 -66 -4 -88 -22 -120 -27 -46 -18 -73 24 -78 20 -2 30
5 49 35 49 80 60 115 57 178 l-3 60 -52 3 -53 3 0 -81z"/>
<path d="M4907 1963 c-13 -13 -7 -42 12 -52 26 -15 60 21 41 44 -13 15 -42 20
-53 8z"/>
<path d="M5157 1603 c-16 -4 -18 -11 -13 -47 4 -24 4 -60 0 -82 l-6 -39 -76 3
c-69 3 -80 1 -103 -20 -45 -39 -59 -79 -59 -168 0 -131 43 -189 141 -190 33 0
63 6 75 14 17 13 22 13 42 0 14 -9 34 -13 48 -10 l24 6 0 264 c0 231 -2 265
-16 270 -17 7 -29 6 -57 -1z m-56 -226 c67 -51 65 -204 -3 -251 -31 -22 -52
-20 -87 10 -30 25 -31 28 -31 114 0 86 1 89 31 114 33 28 65 33 90 13z"/>
<path d="M5567 1604 c-4 -4 -7 -40 -7 -80 0 -47 -4 -76 -12 -81 -7 -4 -42 -6
-78 -4 -63 2 -66 2 -102 -34 -38 -38 -51 -79 -50 -158 1 -80 12 -113 50 -150
l37 -36 115 3 115 3 0 269 0 269 -30 3 c-17 2 -34 0 -38 -4z m-39 -234 l32
-20 0 -99 0 -99 -34 -21 c-42 -26 -57 -26 -88 -1 -57 44 -60 182 -5 232 35 33
51 35 95 8z"/>
<path d="M7217 1604 c-4 -4 -7 -38 -7 -75 0 -99 1 -98 -88 -92 -77 5 -77 5
-109 -29 -22 -23 -38 -54 -49 -98 -16 -62 -16 -68 2 -129 20 -68 66 -121 105
-121 11 0 29 -5 40 -10 14 -8 25 -7 42 2 12 7 47 13 77 13 l55 0 0 270 0 270
-30 3 c-17 2 -34 0 -38 -4z m-41 -235 l34 -21 0 -93 c0 -62 -4 -96 -12 -103
-7 -6 -38 -12 -67 -14 -55 -3 -55 -3 -78 37 -27 47 -29 79 -7 131 20 50 52 84
77 84 11 0 35 -9 53 -21z"/>
<path d="M5773 1583 c-7 -2 -13 -17 -13 -33 0 -33 28 -47 60 -30 26 14 25 35
-2 54 -24 17 -26 17 -45 9z"/>
<path d="M8105 1570 c-3 -5 -3 -21 1 -35 5 -21 12 -25 32 -23 33 4 50 31 33
52 -15 18 -56 22 -66 6z"/>
<path d="M4100 1495 c0 -40 -3 -45 -27 -51 -16 -4 -31 -12 -35 -17 -10 -16 2
-37 22 -37 32 0 38 -24 42 -163 4 -162 8 -170 93 -165 46 3 50 5 50 28 0 19
-6 26 -25 29 -14 1 -28 8 -32 15 -4 6 -8 61 -8 122 0 117 6 134 47 134 18 0
23 6 23 25 0 19 -5 25 -23 25 -33 0 -47 19 -47 62 0 38 0 38 -40 38 l-40 0 0
-45z"/>
<path d="M6355 1528 c-2 -7 -6 -29 -7 -48 -3 -30 -7 -36 -33 -40 -22 -4 -30
-11 -30 -25 0 -14 9 -21 30 -25 l30 -5 5 -142 c6 -172 13 -186 94 -181 44 3
51 6 54 25 3 17 -3 24 -25 29 -15 4 -31 12 -35 18 -4 6 -8 61 -8 121 0 61 4
115 8 121 4 7 18 14 32 15 17 3 25 10 25 24 0 14 -8 21 -25 24 -32 4 -40 17
-40 64 0 36 -1 37 -35 37 -20 0 -38 -6 -40 -12z"/>
<path d="M3309 1417 c-52 -43 -62 -72 -62 -166 0 -92 10 -120 63 -169 23 -21
32 -23 104 -18 l78 4 -5 -36 c-4 -19 -11 -40 -17 -46 -18 -18 -125 -13 -147 7
-25 22 -40 22 -48 -3 -10 -32 11 -55 69 -75 55 -19 57 -19 111 -1 63 22 100
57 110 106 4 19 9 122 12 228 l4 192 -32 0 c-18 0 -40 -7 -50 -15 -15 -14 -18
-14 -32 0 -25 25 -126 20 -158 -8z m146 -43 c64 -42 60 -201 -7 -248 -32 -23
-53 -20 -90 13 -32 28 -32 31 -33 111 0 82 0 82 35 111 39 33 60 36 95 13z"/>
<path d="M3723 1402 c-51 -49 -71 -131 -52 -209 15 -58 27 -77 70 -109 46 -34
157 -35 206 -1 63 43 29 87 -38 49 -45 -26 -76 -28 -109 -6 -35 24 -50 44 -50
70 0 30 16 34 136 34 l104 0 0 51 c0 36 -7 63 -22 88 -38 61 -55 70 -134 71
-70 0 -73 -1 -111 -38z m161 -37 c20 -18 26 -33 24 -53 -3 -26 -5 -27 -72 -30
-76 -3 -90 5 -81 47 8 31 44 60 76 61 14 0 38 -11 53 -25z"/>
<path d="M4536 1400 c-47 -52 -47 -70 0 -70 27 0 42 7 64 31 17 20 38 32 54
32 28 0 76 -40 76 -63 0 -33 -19 -43 -96 -50 -70 -7 -81 -11 -106 -39 -41 -45
-40 -111 2 -153 29 -29 33 -29 98 -24 77 6 82 6 141 3 l44 -2 -2 145 -2 145
-35 42 -35 43 -84 0 -83 0 -36 -40z m183 -174 c37 -44 -31 -124 -94 -112 -36
8 -45 21 -45 68 0 34 3 38 33 47 49 14 93 13 106 -3z"/>
<path d="M5760 1250 l0 -191 38 3 37 3 0 185 0 185 -37 3 -38 3 0 -191z"/>
<path d="M5993 1418 c-18 -11 -33 -26 -33 -33 0 -7 -9 -24 -20 -38 -47 -59
-14 -218 55 -265 47 -33 146 -31 196 4 36 24 56 64 44 84 -13 21 -52 9 -82
-25 -41 -46 -74 -46 -119 -1 -32 32 -34 38 -34 105 0 64 3 73 31 106 37 42 77
47 109 13 11 -12 20 -25 20 -30 0 -14 47 -38 64 -32 29 11 19 58 -21 98 -36
35 -40 36 -108 35 -52 0 -79 -6 -102 -21z"/>
<path d="M6622 1403 c-46 -44 -78 -130 -66 -179 16 -65 43 -110 81 -137 34
-23 49 -27 111 -27 64 0 75 3 102 28 22 19 29 32 25 45 -9 22 -33 22 -70 -3
-38 -25 -69 -25 -110 0 -33 20 -64 74 -51 88 4 4 61 9 127 10 81 3 119 7 120
15 3 42 -5 94 -17 108 -8 8 -14 23 -14 31 0 31 -62 58 -132 58 -62 0 -68 -2
-106 -37z m161 -37 c22 -17 28 -30 25 -52 l-3 -29 -75 0 c-69 0 -75 2 -78 21
-2 12 9 35 23 53 32 38 68 40 108 7z"/>
<path d="M8936 1324 c-8 -20 20 -54 44 -54 17 0 34 45 23 62 -9 15 -61 8 -67
-8z"/>
<path d="M993 940 c-29 -12 -37 -45 -31 -128 8 -104 57 -186 146 -239 l47 -28
645 0 645 0 49 25 c58 30 122 99 136 149 6 20 14 68 17 108 5 67 4 73 -20 97
l-26 26 -793 -1 c-441 0 -803 -4 -815 -9z"/>
<path d="M3314 815 c-4 -9 0 -23 9 -32 21 -21 49 -9 45 19 -4 28 -45 38 -54
13z"/>
<path d="M6282 783 c4 -35 43 -45 53 -14 9 28 -1 41 -31 41 -22 0 -25 -4 -22
-27z"/>
<path d="M7623 613 c-16 -6 -17 -59 -2 -68 5 -4 21 -4 35 -1 19 5 24 13 24 36
0 17 -4 30 -9 30 -5 0 -15 2 -23 4 -7 3 -19 2 -25 -1z"/>
<path d="M4724 345 c-15 -11 -17 -17 -8 -32 16 -26 58 -24 62 4 4 30 -29 47
-54 28z"/>
</g>
</svg>
